<svg width="20" height="20" viewBox="0 0 20 20" fill="none" xmlns="http://www.w3.org/2000/svg">
<path d="M15.0001 6.66669C15.0001 3.90835 12.7584 1.66669 10.0001 1.66669C7.24175 1.66669 5.00008 3.90835 5.00008 6.66669C5.00008 10.4167 10.0001 15.8334 10.0001 15.8334C10.0001 15.8334 15.0001 10.4167 15.0001 6.66669ZM8.33342 6.66669C8.33342 5.75002 9.08342 5.00002 10.0001 5.00002C10.9167 5.00002 11.6667 5.75002 11.6667 6.66669C11.6667 7.58335 10.9251 8.33335 10.0001 8.33335C9.08342 8.33335 8.33342 7.58335 8.33342 6.66669ZM4.16675 16.6667V18.3334H15.8334V16.6667H4.16675Z" fill="#EB5757"/>
</svg>
